<svg xmlns="http://www.w3.org/2000/svg" width="21.333" height="21.333" viewBox="0 0 21.333 21.333"><defs><style>.a{fill:#fff;fill-rule:evenodd;}</style></defs><path class="a" d="M10.667,1.9a32.706,32.706,0,0,1,4.267.119,5.5,5.5,0,0,1,2.015.356,4.162,4.162,0,0,1,2.015,2.015A5.5,5.5,0,0,1,19.319,6.4c0,1.067.119,1.422.119,4.267a32.706,32.706,0,0,1-.119,4.267,5.5,5.5,0,0,1-.356,2.015,4.162,4.162,0,0,1-2.015,2.015,5.5,5.5,0,0,1-2.015.356c-1.067,0-1.422.119-4.267.119A32.706,32.706,0,0,1,6.4,19.319a5.5,5.5,0,0,1-2.015-.356A4.162,4.162,0,0,1,2.37,16.948a5.5,5.5,0,0,1-.356-2.015c0-1.067-.119-1.422-.119-4.267A32.706,32.706,0,0,1,2.015,6.4,5.5,5.5,0,0,1,2.37,4.385,4.257,4.257,0,0,1,3.2,3.2a2,2,0,0,1,1.185-.83A5.5,5.5,0,0,1,6.4,2.015,32.706,32.706,0,0,1,10.667,1.9m0-1.9A35.019,35.019,0,0,0,6.281.119,7.317,7.317,0,0,0,3.674.593a4.64,4.64,0,0,0-1.9,1.185,4.64,4.64,0,0,0-1.185,1.9A5.4,5.4,0,0,0,.119,6.281,35.019,35.019,0,0,0,0,10.667a35.019,35.019,0,0,0,.119,4.385,7.317,7.317,0,0,0,.474,2.607,4.64,4.64,0,0,0,1.185,1.9,4.64,4.64,0,0,0,1.9,1.185,7.317,7.317,0,0,0,2.607.474,35.019,35.019,0,0,0,4.385.119,35.019,35.019,0,0,0,4.385-.119,7.317,7.317,0,0,0,2.607-.474,4.972,4.972,0,0,0,3.081-3.081,7.317,7.317,0,0,0,.474-2.607c0-1.185.119-1.541.119-4.385a35.019,35.019,0,0,0-.119-4.385,7.317,7.317,0,0,0-.474-2.607,4.64,4.64,0,0,0-1.185-1.9,4.64,4.64,0,0,0-1.9-1.185A7.317,7.317,0,0,0,15.052.119,35.019,35.019,0,0,0,10.667,0m0,5.215a5.364,5.364,0,0,0-5.452,5.452,5.452,5.452,0,1,0,5.452-5.452m0,9.007a3.492,3.492,0,0,1-3.556-3.556,3.492,3.492,0,0,1,3.556-3.556,3.492,3.492,0,0,1,3.556,3.556,3.492,3.492,0,0,1-3.556,3.556M16.356,3.674a1.3,1.3,0,1,0,1.3,1.3,1.315,1.315,0,0,0-1.3-1.3"/></svg>