<svg xmlns="http://www.w3.org/2000/svg" width="21" height="21" viewBox="0 0 21 21"><defs><style>.a{fill:none;}.b{fill:#fff;}</style></defs><g transform="translate(-997 -4004.645)"><rect class="a" width="21" height="21" transform="translate(997 4004.645)"/><path class="b" d="M19.354,7.853C19.354,3.523,15.013,0,9.677,0S0,3.523,0,7.853c0,3.882,3.443,7.133,8.093,7.748.315.068.744.208.853.477a2,2,0,0,1,.032.875s-.113.683-.138.828c-.043.244-.194.957.838.522a31.244,31.244,0,0,0,7.6-5.618h0A6.99,6.99,0,0,0,19.354,7.853ZM6.263,10.169a.185.185,0,0,1-.185.185H3.36a.185.185,0,0,1-.185-.185v0h0V5.946a.185.185,0,0,1,.185-.185h.687a.186.186,0,0,1,.185.185V9.3H6.079a.186.186,0,0,1,.185.185v.686Zm1.636,0a.185.185,0,0,1-.185.185H7.028a.185.185,0,0,1-.185-.185V5.946a.185.185,0,0,1,.185-.185h.687a.185.185,0,0,1,.185.185Zm4.672,0a.185.185,0,0,1-.185.185H11.7a.205.205,0,0,1-.048-.006h0l-.013,0-.005,0-.009,0-.009,0-.005,0-.012-.007,0,0a.211.211,0,0,1-.048-.046L9.615,7.662V10.17a.185.185,0,0,1-.185.185H8.744a.185.185,0,0,1-.185-.185V5.946a.185.185,0,0,1,.185-.185H9.46l.011,0,.006,0,.011,0,.006,0,.011,0,.005,0,.01.005.005,0,.01.006.005,0,.01.008,0,0,.011.012h0l.015.019,1.932,2.61V5.946a.185.185,0,0,1,.185-.185h.687a.185.185,0,0,1,.185.185v4.223Zm3.748-3.537a.185.185,0,0,1-.185.185H14.287v.713h1.848a.186.186,0,0,1,.185.185V8.4a.185.185,0,0,1-.185.185H14.287V9.3h1.848a.186.186,0,0,1,.185.185v.687a.185.185,0,0,1-.185.185H13.416a.185.185,0,0,1-.185-.185v0h0V5.949h0v0a.185.185,0,0,1,.185-.185h2.718a.186.186,0,0,1,.185.185Z" transform="translate(997.958 4006.561)"/></g></svg>