<svg xmlns="http://www.w3.org/2000/svg" width="21.333" height="21.333" viewBox="0 0 21.333 21.333"><defs><style>.a{fill:#fff;}</style></defs><path class="a" d="M3.2,3.2A9.684,9.684,0,0,1,10.667,0a9.684,9.684,0,0,1,7.467,3.2,9.684,9.684,0,0,1,3.2,7.467,9.684,9.684,0,0,1-3.2,7.467,9.684,9.684,0,0,1-7.467,3.2,9.684,9.684,0,0,1-7.467-3.2A10.645,10.645,0,0,1,0,10.667,9.684,9.684,0,0,1,3.2,3.2Zm8.889,16a4.368,4.368,0,0,0,2.667-1.6A7.765,7.765,0,0,0,16,13.867a2.944,2.944,0,0,0-.889-2.133A3.129,3.129,0,0,0,12.8,10.667H11.022a5.191,5.191,0,0,1-1.6-.356,1.614,1.614,0,0,1-.533-1.244.924.924,0,0,1,.356-.711A1.348,1.348,0,0,1,9.956,8a1.213,1.213,0,0,1,.889.533c.356.178.533.356.711.356a1.069,1.069,0,0,0,.711-.178A1.069,1.069,0,0,0,12.444,8a2.829,2.829,0,0,0-.889-1.778,7.353,7.353,0,0,0,.889-3.378.382.382,0,0,0-.356-.356,5.5,5.5,0,0,0-1.422-.356A8.893,8.893,0,0,0,6.044,3.556a4.476,4.476,0,0,0-1.6,3.556,4.552,4.552,0,0,0,1.422,3.378,4.857,4.857,0,0,0,3.378,1.422h0v.711A2.282,2.282,0,0,0,9.956,14.4a2.589,2.589,0,0,0,1.6,1.067v3.2c0,.178,0,.178.178.356S11.911,19.2,12.089,19.2Z"/></svg>