<svg xmlns="http://www.w3.org/2000/svg" width="21.333" height="17.304" viewBox="0 0 21.333 17.304"><defs><style>.a{fill:#fff;fill-rule:evenodd;}</style></defs><path class="a" d="M44.756,19.3A12.334,12.334,0,0,0,57.2,6.859V6.267a9.634,9.634,0,0,0,2.133-2.252,9.839,9.839,0,0,1-2.489.711,4.611,4.611,0,0,0,1.9-2.37,10.871,10.871,0,0,1-2.726,1.067A4.233,4.233,0,0,0,52.815,2,4.453,4.453,0,0,0,48.43,6.385a2.311,2.311,0,0,0,.119.948,12.253,12.253,0,0,1-9.007-4.622,4.539,4.539,0,0,0-.593,2.252,4.709,4.709,0,0,0,1.9,3.674,4,4,0,0,1-2.015-.593h0a4.331,4.331,0,0,0,3.556,4.267,3.654,3.654,0,0,1-1.185.119,2.017,2.017,0,0,1-.83-.119,4.49,4.49,0,0,0,4.148,3.081,8.948,8.948,0,0,1-5.452,1.9A3.281,3.281,0,0,1,38,17.17,11.187,11.187,0,0,0,44.756,19.3" transform="translate(-38 -2)"/></svg>